# Blender v2.74 (sub 0) OBJ File: 'Bookcase_01.blend'
# www.blender.org
mtllib Bookcase_01.mtl
o Bookcase01_Cube
v 1.089541 -6.357707 1.000000
v 1.189540 -4.357707 1.000000
v 5.189541 -4.357705 1.000000
v 1.089540 -4.357707 1.000000
v 5.289541 -6.357705 1.000000
v 1.189542 -6.357707 1.000000
v 5.189541 -6.357705 1.000000
v 5.289540 -4.357705 1.000000
v 1.089541 -6.457707 1.000000
v 5.289541 -6.457704 1.000000
v 1.088214 -4.257707 1.000000
v 5.290867 -4.257703 1.000000
v 1.089541 -6.357707 -0.999999
v 1.189540 -4.357707 -1.000000
v 5.189541 -4.357705 -1.000000
v 1.089540 -4.357707 -1.000000
v 5.289541 -6.357705 -1.000000
v 1.189542 -6.357707 -0.999999
v 5.189541 -6.357705 -1.000000
v 5.289540 -4.357705 -1.000000
v 1.089541 -6.457707 -0.999999
v 5.289541 -6.457704 -1.000000
v 1.088214 -4.257707 -1.000000
v 5.290867 -4.257703 -1.000000
v 1.089541 -6.457707 -1.099999
v 5.289541 -6.457704 -1.100000
v 1.088214 -4.257707 -1.100000
v 5.290867 -4.257703 -1.100000
v -1.013112 -4.257709 1.000000
v 0.986888 -4.357707 1.000000
v 0.986890 -8.557708 1.000000
v 0.986888 -4.257707 1.000000
v -1.013111 -8.657708 1.000000
v -1.013112 -4.357709 1.000000
v -1.013111 -8.557708 1.000000
v 0.986890 -8.657706 1.000000
v -1.111786 -4.257707 1.000000
v -1.113110 -8.657709 1.000000
v 1.088216 -8.657706 1.000000
v -1.013112 -4.257709 -0.999999
v 0.986888 -4.357707 -1.000000
v 0.986890 -8.557708 -1.000000
v 0.986888 -4.257707 -1.000000
v -1.013111 -8.657708 -1.000000
v -1.013112 -4.357709 -0.999999
v -1.013111 -8.557708 -1.000000
v 0.986890 -8.657706 -1.000000
v -1.111786 -4.257707 -1.000000
v -1.113110 -8.657709 -1.000000
v 1.088216 -8.657706 -1.000000
v -1.111786 -4.257707 -1.100000
v -1.113110 -8.657709 -1.100000
v 1.088216 -8.657706 -1.100000
v 1.089543 -8.557706 1.000000
v 1.189541 -6.557706 1.000000
v 5.189541 -6.557705 1.000000
v 1.089541 -6.557706 1.000000
v 5.289542 -8.557705 1.000000
v 1.189543 -8.557706 1.000000
v 5.189543 -8.557706 1.000000
v 5.289541 -6.557704 1.000000
v 5.289542 -8.657705 1.000000
v 1.089543 -8.557706 -0.999999
v 1.189541 -6.557706 -1.000000
v 5.189541 -6.557705 -1.000000
v 1.089541 -6.557706 -1.000000
v 5.289542 -8.557705 -1.000000
v 1.189543 -8.557706 -0.999999
v 5.189543 -8.557706 -1.000000
v 5.289541 -6.557704 -1.000000
v 5.289542 -8.657705 -1.000000
v 5.289542 -8.657705 -1.100000
v 3.089539 -2.157704 1.000000
v 2.989541 -4.157704 1.000000
v -1.010459 -4.157705 1.000000
v 3.089541 -4.157704 1.000000
v -1.110460 -2.157705 1.000000
v 2.989539 -2.157704 1.000000
v -1.010460 -2.157705 1.000000
v -1.110459 -4.157705 1.000000
v 3.089539 -2.057704 1.000000
v -1.110460 -2.057705 1.000000
v 3.090867 -4.257704 1.000000
v 3.089539 -2.157704 -0.999999
v 2.989541 -4.157704 -1.000000
v -1.010459 -4.157705 -1.000000
v 3.089541 -4.157704 -1.000000
v -1.110460 -2.157705 -1.000000
v 2.989539 -2.157704 -0.999999
v -1.010460 -2.157705 -1.000000
v -1.110459 -4.157705 -1.000000
v 3.089539 -2.057704 -0.999999
v -1.110460 -2.057705 -1.000000
v 3.090867 -4.257704 -1.000000
v 3.089539 -2.057704 -1.099999
v -1.110460 -2.057705 -1.100000
v 3.090867 -4.257704 -1.100000
v 5.192193 -4.257702 1.000000
v 3.192193 -4.157703 1.000000
v 3.192192 0.042296 1.000000
v 3.192193 -4.257704 1.000000
v 5.192192 0.142297 1.000000
v 5.192193 -4.157702 1.000000
v 5.192192 0.042297 1.000000
v 3.192192 0.142296 1.000000
v 5.290866 0.142296 1.000000
v 3.090866 0.142296 1.000000
v 5.192193 -4.257702 -0.999999
v 3.192193 -4.157703 -1.000000
v 3.192192 0.042296 -1.000000
v 3.192193 -4.257704 -1.000000
v 5.192192 0.142297 -1.000000
v 5.192193 -4.157702 -0.999999
v 5.192192 0.042297 -1.000000
v 3.192192 0.142296 -1.000000
v 5.290866 0.142296 -1.000000
v 3.090866 0.142296 -1.000000
v 5.290866 0.142296 -1.100000
v 3.090866 0.142296 -1.100000
v 3.089539 0.042296 1.000000
v 2.989540 -1.957704 1.000000
v -1.010460 -1.957706 1.000000
v 3.089540 -1.957704 1.000000
v -1.110461 0.042295 1.000000
v 2.989539 0.042296 1.000000
v -1.010461 0.042294 1.000000
v -1.110460 -1.957706 1.000000
v -1.111787 0.142295 1.000000
v 3.089539 0.042296 -0.999999
v 2.989540 -1.957704 -1.000000
v -1.010460 -1.957706 -1.000000
v 3.089540 -1.957704 -1.000000
v -1.110461 0.042295 -1.000000
v 2.989539 0.042296 -0.999999
v -1.010461 0.042294 -1.000000
v -1.110460 -1.957706 -1.000000
v -1.111787 0.142295 -1.000000
v -1.111787 0.142295 -1.100000
v 1.089540 2.442295 1.000000
v 1.189539 4.442296 1.000000
v 5.189539 4.442296 1.000000
v 1.089539 4.442295 1.000000
v 5.289540 2.442296 1.000000
v 1.189540 2.442296 1.000000
v 5.189540 2.442296 1.000000
v 5.289539 4.442297 1.000000
v 1.089540 2.342295 1.000000
v 5.289540 2.342296 1.000000
v 1.088213 4.542295 1.000000
v 5.289539 4.542296 1.000000
v 1.089540 2.442295 -0.999999
v 1.189539 4.442296 -1.000000
v 5.189539 4.442296 -1.000000
v 1.089539 4.442295 -1.000000
v 5.289540 2.442296 -1.000000
v 1.189540 2.442296 -0.999999
v 5.189540 2.442296 -1.000000
v 5.289539 4.442297 -1.000000
v 1.089540 2.342295 -0.999999
v 5.289540 2.342296 -1.000000
v 1.088213 4.542295 -1.000000
v 5.289539 4.542296 -1.000000
v 1.089540 2.342295 -1.099999
v 5.289540 2.342296 -1.100000
v 1.088213 4.542295 -1.100000
v 5.289539 4.542296 -1.100000
v -1.013113 4.542294 1.000000
v 0.986887 4.442295 1.000000
v 0.986887 0.242295 1.000000
v 0.986887 4.542295 1.000000
v -1.013113 0.142294 1.000000
v -1.013113 4.442294 1.000000
v -1.013113 0.242294 1.000000
v 0.986887 0.142295 1.000000
v -1.113113 4.542295 1.000000
v 1.088214 0.142295 1.000000
v -1.013113 4.542294 -0.999999
v 0.986887 4.442295 -1.000000
v 0.986887 0.242295 -1.000000
v 0.986887 4.542295 -1.000000
v -1.013113 0.142294 -1.000000
v -1.013113 4.442294 -0.999999
v -1.013113 0.242294 -1.000000
v 0.986887 0.142295 -1.000000
v -1.113113 4.542295 -0.999999
v 1.088214 0.142295 -1.000000
v -1.113113 4.542295 -1.099999
v 1.088214 0.142295 -1.100000
v 1.089540 0.242295 1.000000
v 1.189539 2.242295 1.000000
v 5.189539 2.242296 1.000000
v 1.089539 2.242295 1.000000
v 5.289540 0.242296 1.000000
v 1.189540 0.242295 1.000000
v 5.189540 0.242296 1.000000
v 5.289540 2.242296 1.000000
v 1.089540 0.242295 -0.999999
v 1.189539 2.242295 -1.000000
v 5.189539 2.242296 -1.000000
v 1.089539 2.242295 -1.000000
v 5.289540 0.242296 -1.000000
v 1.189540 0.242295 -0.999999
v 5.189540 0.242296 -1.000000
v 5.289540 2.242296 -1.000000
vt 0.720419 0.095061
vt 0.720419 0.078795
vt 0.927981 0.078796
vt 0.928132 0.089589
vt 0.921872 0.089849
vt 0.796659 0.095061
vt 0.918725 0.991561
vt 0.909805 0.991561
vt 0.909804 0.345681
vt 0.918725 0.345681
vt 0.398807 0.641233
vt 0.220403 0.641233
vt 0.220403 -0.004675
vt 0.398807 -0.004675
vt 0.722589 0.200936
vt 0.728849 0.200676
vt 0.854062 0.195464
vt 0.930301 0.195464
vt 0.930301 0.211729
vt 0.722740 0.211729
vt 0.685939 0.472505
vt 0.451689 0.472505
vt 0.451689 0.238255
vt 0.685939 0.238255
vt 0.703134 0.227326
vt 0.937384 0.227326
vt 0.937384 0.239038
vt 0.703134 0.239038
vt 0.699260 0.307858
vt 0.699260 0.296145
vt 0.933509 0.296145
vt 0.933509 0.307857
vt 0.911327 0.150486
vt 0.911327 0.165865
vt 0.732922 0.165864
vt 0.732922 0.150486
vt 0.882107 0.976409
vt 0.882107 0.361258
vt 0.882107 0.345880
vt 0.891027 0.345880
vt 0.891027 0.991788
vt 0.882107 0.991788
vt 0.912445 0.132034
vt 0.734041 0.132034
vt 0.734041 0.116655
vt 0.912445 0.116655
vt 0.861593 0.982153
vt 0.861593 0.997532
vt 0.852673 0.997532
vt 0.852673 0.351623
vt 0.861593 0.351623
vt 0.861593 0.367002
vt 0.002737 0.624122
vt 0.002737 0.008971
vt 0.181141 0.008971
vt 0.181141 0.624122
vt 0.812480 0.991827
vt 0.634076 0.991827
vt 0.634076 0.376677
vt 0.812480 0.376676
vt 0.662780 0.039799
vt 0.662780 0.274049
vt 0.428530 0.274049
vt 0.428530 0.039800
vt 0.399591 0.949998
vt 0.221186 0.949998
vt 0.221186 0.642423
vt 0.399591 0.642423
vt 0.001188 0.991301
vt 0.001188 0.376150
vt 0.179592 0.376150
vt 0.179592 0.991301
vt 0.696477 0.282247
vt 0.696477 0.270535
vt 0.930727 0.270535
vt 0.930727 0.282247
vt 0.698645 0.317917
vt 0.932894 0.317917
vt 0.932894 0.329630
vt 0.698645 0.329630
vt 0.222363 0.447555
vt 0.222363 0.139980
vt 0.400767 0.139980
vt 0.400767 0.447555
vt 0.444027 0.992687
vt 0.186353 0.992687
vt 0.186353 0.500763
vt 0.444027 0.500763
vt 0.448328 0.991852
vt 0.448328 0.345944
vt 0.626733 0.345944
vt 0.626732 0.991852
vt 0.830201 0.995159
vt 0.830201 0.349244
vt 0.839121 0.349244
vt 0.839121 0.995159
vn -1.000000 -0.000600 0.006300
vn -0.000000 1.000000 0.000000
vn 1.000000 -0.000600 0.006300
vn 1.000000 0.000000 0.000000
vn 0.999900 -0.013300 0.000000
vn 0.000000 0.000000 1.000000
vn 0.000000 -1.000000 0.000000
vn -1.000000 -0.000000 0.000000
vn -0.999900 -0.013300 0.000000
vn -0.000000 -0.000000 -1.000000
vn -1.000000 0.000300 0.000000
vn -0.999900 0.013300 0.000000
vn -1.000000 0.000600 0.006300
vn 1.000000 0.000600 0.006300
vn 0.999900 0.013300 0.000000
vn -1.000000 -0.000300 0.000000
usemtl Material
s off
f 23/1/1 27/2/1 25/3/1 21/4/1 13/5/1 16/6/1
f 24/7/2 28/8/2 27/9/2 23/10/2
f 12/11/2 24/12/2 23/13/2 11/14/2
f 24/15/3 20/16/3 17/17/3 22/18/3 26/19/3 28/20/3
f 8/21/4 5/22/4 17/23/4 20/24/4
f 10/25/4 22/26/4 17/27/4 5/28/4
f 12/29/5 8/30/5 20/31/5 24/32/5
f 1/33/6 6/34/6 2/35/6 4/36/6
f 7/37/6 6/38/6 1/39/6 9/40/6 10/41/6 5/42/6
f 5/43/6 8/44/6 3/45/6 7/46/6
f 3/47/6 8/48/6 12/49/6 11/50/6 4/51/6 2/52/6
f 3/53/7 2/54/7 14/55/7 15/56/7
f 7/57/2 19/58/2 18/59/2 6/60/2
f 6/61/4 18/62/4 14/63/4 2/64/4
f 7/65/8 3/66/8 15/67/8 19/68/8
f 15/69/6 14/70/6 18/71/6 19/72/6
f 9/73/8 1/74/8 13/75/8 21/76/8
f 11/77/9 23/78/9 16/79/9 4/80/9
f 4/81/8 16/82/8 13/83/8 1/84/8
f 10/11/7 9/12/7 21/13/7 22/14/7
f 22/7/7 21/8/7 25/9/7 26/10/7
f 28/85/10 26/86/10 25/87/10 27/88/10
f 11/77/2 23/78/2 43/79/2 32/80/2
f 23/1/2 27/2/2 51/3/2 48/4/2 40/5/2 43/6/2
f 53/85/10 52/86/10 51/87/10 27/88/10
f 50/15/7 47/16/7 44/17/7 49/18/7 52/19/7 53/20/7
f 36/21/7 33/22/7 44/23/7 47/24/7
f 38/25/7 49/26/7 44/27/7 33/28/7
f 39/29/7 36/30/7 47/31/7 50/32/7
f 29/33/6 34/34/6 30/35/6 32/36/6
f 35/37/6 34/38/6 29/39/6 37/40/6 38/41/6 33/42/6
f 33/43/6 36/44/6 31/45/6 35/46/6
f 31/53/8 30/54/8 41/55/8 42/56/8
f 35/57/4 46/58/4 45/59/4 34/60/4
f 34/61/7 45/62/7 41/63/7 30/64/7
f 35/65/2 31/66/2 42/67/2 46/68/2
f 42/69/6 41/70/6 45/71/6 46/72/6
f 37/73/2 29/74/2 40/75/2 48/76/2
f 32/81/2 43/82/2 40/83/2 29/84/2
f 38/89/11 37/90/11 48/91/11 49/92/11
f 49/93/11 48/94/11 51/95/11 52/96/11
f 50/7/4 53/8/4 27/9/4 23/10/4
f 61/21/4 58/22/4 67/23/4 70/24/4
f 62/25/4 71/26/4 67/27/4 58/28/4
f 54/33/6 59/34/6 55/35/6 57/36/6
f 39/73/12 54/74/12 63/75/12 50/76/12
f 58/43/6 61/44/6 56/45/6 60/46/6
f 56/53/7 55/54/7 64/55/7 65/56/7
f 60/57/2 69/58/2 68/59/2 59/60/2
f 59/61/4 68/62/4 64/63/4 55/64/4
f 60/65/8 56/66/8 65/67/8 69/68/8
f 65/69/6 64/70/6 68/71/6 69/72/6
f 57/81/8 66/82/8 63/83/8 54/84/8
f 31/47/6 36/48/6 39/49/6 11/50/6 32/51/6 30/52/6
f 39/11/4 50/12/4 23/13/4 11/14/4
f 26/85/10 72/86/10 53/87/10 25/88/10
f 22/15/4 70/16/4 67/17/4 71/18/4 72/19/4 26/20/4
f 10/29/4 61/30/4 70/31/4 22/32/4
f 56/47/6 61/48/6 10/49/6 9/50/6 57/51/6 55/52/6
f 9/77/8 21/78/8 66/79/8 57/80/8
f 60/37/6 59/38/6 54/39/6 39/40/6 62/41/6 58/42/6
f 71/93/7 50/94/7 53/95/7 72/96/7
f 21/1/13 25/2/13 53/3/13 50/4/13 63/5/13 66/6/13
f 62/89/7 39/90/7 50/91/7 71/92/7
f 94/1/14 97/2/14 95/3/14 92/4/14 84/5/14 87/6/14
f 48/15/13 91/16/13 88/17/13 93/18/13 96/19/13 51/20/13
f 80/21/8 77/22/8 88/23/8 91/24/8
f 82/25/8 93/26/8 88/27/8 77/28/8
f 37/11/7 48/12/7 94/13/7 83/14/7
f 73/33/6 78/34/6 74/35/6 76/36/6
f 79/37/6 78/38/6 73/39/6 81/40/6 82/41/6 77/42/6
f 77/43/6 80/44/6 75/45/6 79/46/6
f 173/37/6 172/38/6 167/39/6 175/40/6 128/41/6 171/42/6
f 75/53/2 74/54/2 85/55/2 86/56/2
f 79/57/7 90/58/7 89/59/7 78/60/7
f 78/61/8 89/62/8 85/63/8 74/64/8
f 79/65/4 75/66/4 86/67/4 90/68/4
f 86/69/6 85/70/6 89/71/6 90/72/6
f 81/73/4 73/74/4 84/75/4 92/76/4
f 83/77/15 94/78/15 87/79/15 76/80/15
f 76/81/4 87/82/4 84/83/4 73/84/4
f 82/11/2 81/12/2 92/13/2 93/14/2
f 93/7/2 92/8/2 95/9/2 96/10/2
f 186/15/7 184/16/7 181/17/7 137/18/7 138/19/7 188/20/7
f 83/77/7 94/78/7 111/79/7 101/80/7
f 12/73/7 98/74/7 108/75/7 24/76/7
f 94/1/7 97/2/7 28/3/7 24/4/7 108/5/7 111/6/7
f 117/15/2 115/16/2 112/17/2 116/18/2 118/19/2 119/20/2
f 105/21/2 102/22/2 112/23/2 115/24/2
f 106/25/2 116/26/2 112/27/2 102/28/2
f 107/29/2 105/30/2 115/31/2 117/32/2
f 98/33/6 103/34/6 99/35/6 101/36/6
f 48/7/7 51/8/7 97/9/7 94/10/7
f 102/43/6 105/44/6 100/45/6 104/46/6
f 100/53/4 99/54/4 109/55/4 110/56/4
f 104/57/8 114/58/8 113/59/8 103/60/8
f 103/61/2 113/62/2 109/63/2 99/64/2
f 104/65/7 100/66/7 110/67/7 114/68/7
f 110/69/6 109/70/6 113/71/6 114/72/6
f 119/85/10 118/86/10 28/87/10 97/88/10
f 101/81/7 111/82/7 108/83/7 98/84/7
f 51/85/10 96/86/10 95/87/10 97/88/10
f 116/93/4 24/94/4 28/95/4 118/96/4
f 117/7/8 119/8/8 97/9/8 94/10/8
f 127/21/8 124/22/8 133/23/8 136/24/8
f 128/25/9 137/26/9 133/27/9 124/28/9
f 120/33/6 125/34/6 121/35/6 123/36/6
f 107/73/5 120/74/5 129/75/5 117/76/5
f 124/43/6 127/44/6 122/45/6 126/46/6
f 122/53/2 121/54/2 130/55/2 131/56/2
f 126/57/7 135/58/7 134/59/7 125/60/7
f 125/61/8 134/62/8 130/63/8 121/64/8
f 126/65/4 122/66/4 131/67/4 135/68/4
f 131/69/6 130/70/6 134/71/6 135/72/6
f 123/81/4 132/82/4 129/83/4 120/84/4
f 100/47/6 105/48/6 107/49/6 83/50/6 101/51/6 99/52/6
f 107/11/8 117/12/8 94/13/8 83/14/8
f 96/85/10 138/86/10 119/87/10 95/88/10
f 93/15/1 136/16/1 133/17/1 137/18/1 138/19/1 96/20/1
f 82/29/8 127/30/8 136/31/8 93/32/8
f 122/47/6 127/48/6 82/49/6 81/50/6 123/51/6 121/52/6
f 81/77/4 92/78/4 132/79/4 123/80/4
f 126/37/6 125/38/6 120/39/6 107/40/6 128/41/6 124/42/6
f 137/93/2 117/94/2 119/95/2 138/96/2
f 92/1/3 95/2/3 119/3/3 117/4/3 129/5/3 132/6/3
f 128/89/2 107/90/2 117/91/2 137/92/2
f 161/1/1 165/2/1 163/3/1 159/4/1 151/5/1 154/6/1
f 162/7/2 166/8/2 165/9/2 161/10/2
f 150/11/2 162/12/2 161/13/2 149/14/2
f 162/15/4 158/16/4 155/17/4 160/18/4 164/19/4 166/20/4
f 146/21/4 143/22/4 155/23/4 158/24/4
f 148/25/4 160/26/4 155/27/4 143/28/4
f 150/29/4 146/30/4 158/31/4 162/32/4
f 139/33/6 144/34/6 140/35/6 142/36/6
f 145/37/6 144/38/6 139/39/6 147/40/6 148/41/6 143/42/6
f 143/43/6 146/44/6 141/45/6 145/46/6
f 141/47/6 146/48/6 150/49/6 149/50/6 142/51/6 140/52/6
f 141/53/7 140/54/7 152/55/7 153/56/7
f 145/57/2 157/58/2 156/59/2 144/60/2
f 144/61/4 156/62/4 152/63/4 140/64/4
f 145/65/8 141/66/8 153/67/8 157/68/8
f 153/69/6 152/70/6 156/71/6 157/72/6
f 147/73/8 139/74/8 151/75/8 159/76/8
f 149/77/9 161/78/9 154/79/9 142/80/9
f 142/81/8 154/82/8 151/83/8 139/84/8
f 148/11/7 147/12/7 159/13/7 160/14/7
f 160/7/7 159/8/7 163/9/7 164/10/7
f 166/85/10 164/86/10 163/87/10 165/88/10
f 149/77/2 161/78/2 180/79/2 170/80/2
f 161/1/2 165/2/2 187/3/2 185/4/2 177/5/2 180/6/2
f 195/37/6 194/38/6 189/39/6 176/40/6 106/41/6 193/42/6
f 188/85/10 138/86/10 187/87/10 165/88/10
f 174/21/7 171/22/7 181/23/7 184/24/7
f 164/85/10 118/86/10 188/87/10 163/88/10
f 176/29/7 174/30/7 184/31/7 186/32/7
f 167/33/6 172/34/6 168/35/6 170/36/6
f 128/25/7 137/26/7 181/27/7 171/28/7
f 171/43/6 174/44/6 169/45/6 173/46/6
f 169/53/8 168/54/8 178/55/8 179/56/8
f 173/57/4 183/58/4 182/59/4 172/60/4
f 172/61/7 182/62/7 178/63/7 168/64/7
f 173/65/2 169/66/2 179/67/2 183/68/2
f 179/69/6 178/70/6 182/71/6 183/72/6
f 175/73/2 167/74/2 177/75/2 185/76/2
f 170/81/2 180/82/2 177/83/2 167/84/2
f 128/89/16 175/90/16 185/91/16 137/92/16
f 137/93/16 185/94/16 187/95/16 138/96/16
f 186/7/4 188/8/4 165/9/4 161/10/4
f 196/21/4 193/22/4 201/23/4 204/24/4
f 106/25/15 116/26/15 201/27/15 193/28/15
f 189/33/6 194/34/6 190/35/6 192/36/6
f 176/73/12 189/74/12 197/75/12 186/76/12
f 193/43/6 196/44/6 191/45/6 195/46/6
f 191/53/7 190/54/7 198/55/7 199/56/7
f 195/57/2 203/58/2 202/59/2 194/60/2
f 194/61/4 202/62/4 198/63/4 190/64/4
f 195/65/8 191/66/8 199/67/8 203/68/8
f 199/69/6 198/70/6 202/71/6 203/72/6
f 192/81/8 200/82/8 197/83/8 189/84/8
f 169/47/6 174/48/6 176/49/6 149/50/6 170/51/6 168/52/6
f 176/11/4 186/12/4 161/13/4 149/14/4
f 160/15/14 204/16/14 201/17/14 116/18/14 118/19/14 164/20/14
f 148/29/4 196/30/4 204/31/4 160/32/4
f 191/47/6 196/48/6 148/49/6 147/50/6 192/51/6 190/52/6
f 147/77/8 159/78/8 200/79/8 192/80/8
f 116/93/7 186/94/7 188/95/7 118/96/7
f 159/1/13 163/2/13 188/3/13 186/4/13 197/5/13 200/6/13
f 106/89/7 176/90/7 186/91/7 116/92/7
f 104/37/6 103/38/6 98/39/6 12/40/6 106/41/6 102/42/6
f 75/47/6 80/48/6 37/49/6 83/50/6 76/51/6 74/52/6
f 37/29/12 80/30/12 91/31/12 48/32/12
f 106/89/4 12/90/4 24/91/4 116/92/4
l 18 13
l 14 16
l 19 17
l 15 20
l 45 40
l 41 43
l 46 44
l 42 47
l 89 84
l 85 87
l 90 88
l 86 91
l 113 108
l 109 111
l 114 112
l 110 115
l 156 151
l 152 154
l 157 155
l 153 158
l 182 177
l 178 180
l 183 181
l 179 184
